<svg width="26" height="22" viewBox="0 0 26 22" fill="none" xmlns="http://www.w3.org/2000/svg">
<path d="M24.25 9.125H23V7.875C23 7.54348 22.8683 7.22554 22.6339 6.99112C22.3995 6.7567 22.0815 6.625 21.75 6.625C21.4185 6.625 21.1005 6.7567 20.8661 6.99112C20.6317 7.22554 20.5 7.54348 20.5 7.875V9.125H19.25C18.9185 9.125 18.6005 9.2567 18.3661 9.49112C18.1317 9.72554 18 10.0435 18 10.375C18 10.7065 18.1317 11.0245 18.3661 11.2589C18.6005 11.4933 18.9185 11.625 19.25 11.625H20.5V12.875C20.5 13.2065 20.6317 13.5245 20.8661 13.7589C21.1005 13.9933 21.4185 14.125 21.75 14.125C22.0815 14.125 22.3995 13.9933 22.6339 13.7589C22.8683 13.5245 23 13.2065 23 12.875V11.625H24.25C24.5815 11.625 24.8995 11.4933 25.1339 11.2589C25.3683 11.0245 25.5 10.7065 25.5 10.375C25.5 10.0435 25.3683 9.72554 25.1339 9.49112C24.8995 9.2567 24.5815 9.125 24.25 9.125ZM14.625 11.275C15.292 10.6977 15.8269 9.98361 16.1936 9.18128C16.5602 8.37895 16.75 7.50714 16.75 6.625C16.75 4.9674 16.0915 3.37769 14.9194 2.20558C13.7473 1.03348 12.1576 0.375 10.5 0.375C8.8424 0.375 7.25269 1.03348 6.08058 2.20558C4.90848 3.37769 4.25 4.9674 4.25 6.625C4.24999 7.50714 4.43975 8.37895 4.80641 9.18128C5.17306 9.98361 5.70803 10.6977 6.375 11.275C4.62517 12.0674 3.14058 13.3469 2.09873 14.9607C1.05687 16.5744 0.50184 18.4541 0.5 20.375C0.5 20.7065 0.631696 21.0245 0.866116 21.2589C1.10054 21.4933 1.41848 21.625 1.75 21.625C2.08152 21.625 2.39946 21.4933 2.63388 21.2589C2.8683 21.0245 3 20.7065 3 20.375C3 18.3859 3.79018 16.4782 5.1967 15.0717C6.60322 13.6652 8.51088 12.875 10.5 12.875C12.4891 12.875 14.3968 13.6652 15.8033 15.0717C17.2098 16.4782 18 18.3859 18 20.375C18 20.7065 18.1317 21.0245 18.3661 21.2589C18.6005 21.4933 18.9185 21.625 19.25 21.625C19.5815 21.625 19.8995 21.4933 20.1339 21.2589C20.3683 21.0245 20.5 20.7065 20.5 20.375C20.4982 18.4541 19.9431 16.5744 18.9013 14.9607C17.8594 13.3469 16.3748 12.0674 14.625 11.275ZM10.5 10.375C9.75832 10.375 9.0333 10.1551 8.41661 9.74301C7.79993 9.33096 7.31928 8.74529 7.03545 8.06006C6.75162 7.37484 6.67736 6.62084 6.82206 5.89341C6.96675 5.16598 7.3239 4.4978 7.84835 3.97335C8.3728 3.4489 9.04098 3.09175 9.76841 2.94706C10.4958 2.80236 11.2498 2.87662 11.9351 3.16045C12.6203 3.44428 13.206 3.92493 13.618 4.54161C14.0301 5.1583 14.25 5.88332 14.25 6.625C14.25 7.61956 13.8549 8.57339 13.1517 9.27665C12.4484 9.97991 11.4946 10.375 10.5 10.375Z" fill="white"/>
</svg>
