<svg width="120" height="120" viewBox="0 0 120 120" fill="none" xmlns="http://www.w3.org/2000/svg">
<rect y="2.95081" width="120" height="117.049" rx="20" fill="#5E72E4"/>
<path d="M31.328 45.84V74.992H22.912V70.16H26.112V45.84H31.328ZM22.304 48.912L19.296 74.992H14.176L17.152 48.912H22.304ZM39.52 48.912L42.496 74.992H37.6L34.624 48.912H39.52ZM72.288 64.048V70.896H73.696V75.152H45.952V70.896H47.232V64.048H72.288ZM54.88 45.84V47.088H64.736V45.84H69.952V47.088H73.856V51.376H69.952V52.656H64.736V51.376H54.88V52.656H49.696V51.376H45.792V47.088H49.696V45.84H54.88ZM73.312 54.416V59.024H71.968L73.056 63.504H68.032L66.944 59.024H65.792L64.928 63.504H59.52L61.472 53.168H66.912L66.656 54.416H73.312ZM58.24 53.168V63.504H53.056V53.168H58.24ZM51.648 53.584V63.12H46.464V53.584H51.648ZM58.784 70.896H60.768V68.304H58.784V70.896ZM52.448 70.896H54.176V68.304H52.448V70.896ZM65.408 70.896H67.072V68.304H65.408V70.896ZM102.816 46.64L104.192 50.512H106.72V55.344H101.12L99.84 51.792V60.08H104.48V73.488H94.016V68.624H99.296V64.944H90.304V75.184H85.12V64.944H77.344V60.08H85.12V54.384H78.752V49.552H85.12V45.84H90.304V49.552H99.04L97.984 46.64H102.816ZM90.304 60.08H94.624V54.384H90.304V60.08Z" fill="white"/>
</svg>
