<svg width="130" height="130" viewBox="0 0 130 130" fill="none" xmlns="http://www.w3.org/2000/svg">
<rect width="130" height="130" rx="40" fill="white"/>
<rect x="12" y="14.6066" width="106" height="103.393" rx="20" fill="#5E72E4"/>
<path d="M43.496 53.88V75.744H37.184V72.12H39.584V53.88H43.496ZM36.728 56.184L34.472 75.744H30.632L32.864 56.184H36.728ZM49.64 56.184L51.872 75.744H48.2L45.968 56.184H49.64ZM74.216 67.536V72.672H75.272V75.864H54.464V72.672H55.424V67.536H74.216ZM61.16 53.88V54.816H68.552V53.88H72.464V54.816H75.392V58.032H72.464V58.992H68.552V58.032H61.16V58.992H57.272V58.032H54.344V54.816H57.272V53.88H61.16ZM74.984 60.312V63.768H73.976L74.792 67.128H71.024L70.208 63.768H69.344L68.696 67.128H64.64L66.104 59.376H70.184L69.992 60.312H74.984ZM63.68 59.376V67.128H59.792V59.376H63.68ZM58.736 59.688V66.84H54.848V59.688H58.736ZM64.088 72.672H65.576V70.728H64.088V72.672ZM59.336 72.672H60.632V70.728H59.336V72.672ZM69.056 72.672H70.304V70.728H69.056V72.672ZM97.112 54.48L98.144 57.384H100.04V61.008H95.84L94.88 58.344V64.56H98.36V74.616H90.512V70.968H94.472V68.208H87.728V75.888H83.84V68.208H78.008V64.56H83.84V60.288H79.064V56.664H83.84V53.88H87.728V56.664H94.28L93.488 54.48H97.112ZM87.728 64.56H90.968V60.288H87.728V64.56Z" fill="white"/>
</svg>
