<svg width="203" height="218" viewBox="0 0 203 218" fill="none" xmlns="http://www.w3.org/2000/svg">
<path d="M19.57 207.44L18.15 206.96C18.05 208.56 17.91 209.62 17.71 210.16C17.49 210.7 16.99 210.98 16.21 210.98H11.85C11.17 210.96 10.83 210.6 10.83 209.92V203.08H17.93V195.64H8.47V197.04H16.55V201.7H9.43V210.44C9.43 211.72 10.05 212.36 11.29 212.36H16.47C17.59 212.36 18.35 212.04 18.73 211.44C19.11 210.82 19.39 209.48 19.57 207.44ZM3.49 194.86L2.49 195.84C3.93 196.92 5.09 197.96 5.93 198.94L6.91 197.94C5.99 196.9 4.85 195.88 3.49 194.86ZM1.15 200.78V202.16H4.09V210.14C4.09 210.46 3.95 210.74 3.67 210.98L4.23 212.28C5.67 211.36 7.05 210.34 8.33 209.18L7.97 207.66C7.09 208.46 6.25 209.18 5.47 209.78V200.78H1.15ZM40.19 195.42V196.72H50.27V198.72H40.87V199.98H50.27V201.92H38.19V203.22H45.91V205.72C43.69 207.76 41.05 209.5 37.97 210.96L38.55 212.3C41.39 210.78 43.85 209.1 45.91 207.22V210.88C45.91 211.46 45.69 211.76 45.29 211.76C44.61 211.76 43.91 211.72 43.17 211.66L43.47 213.02H45.77C46.81 213.02 47.35 212.42 47.35 211.22V207.1C49.15 209.18 51.59 210.94 54.67 212.38L55.39 211.1C53.27 210.18 51.43 209.1 49.87 207.88C51.31 207.12 52.57 206.02 53.69 204.58L52.59 203.66C51.55 205.14 50.31 206.28 48.89 207.08C48.33 206.58 47.83 206.06 47.35 205.5V203.22H55.33V201.92H51.73V195.42H40.19ZM40.35 203.98L39.39 204.9C40.71 205.8 41.73 206.66 42.49 207.46L43.41 206.52C42.59 205.68 41.57 204.82 40.35 203.98ZM75.17 196.68V198H82.51V199.9H76.29V201.18H82.51V203.12H74.51V204.44H91.99V203.12H83.99V201.18H90.27V199.9H83.99V198H91.33V196.68H86.89C87.23 196.06 87.49 195.42 87.69 194.74L86.15 194.54C85.99 195.26 85.73 195.98 85.39 196.68H81.21C80.91 195.9 80.61 195.2 80.29 194.58L78.77 194.82C79.13 195.38 79.45 196 79.73 196.68H75.17ZM82.65 204.96C82.57 205.52 82.43 206.06 82.25 206.58H74.97V207.94H81.59C81.25 208.48 80.83 208.96 80.31 209.38C79.03 210.4 76.95 211.18 74.05 211.72L74.65 213.12C77.91 212.44 80.19 211.52 81.49 210.34C82.17 209.7 82.75 208.98 83.19 208.14C84.51 210.54 87.37 212.18 91.77 213.06L92.53 211.7C88.59 211.04 85.93 209.78 84.55 207.94H91.55V206.58H83.81C83.95 206.14 84.05 205.64 84.13 205.12L82.65 204.96ZM114.01 194.44C113.79 195.82 113.55 197.16 113.27 198.48H110.85V199.86H112.97C112.49 201.9 111.95 203.8 111.33 205.56C112.45 206.38 113.49 207.16 114.41 207.9C113.47 209.46 112.25 210.78 110.73 211.88L111.71 213.08C113.25 211.9 114.53 210.48 115.53 208.82C116.53 209.66 117.39 210.42 118.07 211.14L119.05 210C118.31 209.28 117.37 208.46 116.21 207.56C117.33 205.22 117.99 202.46 118.17 199.3V198.48H114.71C114.95 197.28 115.19 195.96 115.43 194.56L114.01 194.44ZM115.05 206.68C114.39 206.2 113.67 205.68 112.91 205.14C113.43 203.74 113.93 201.98 114.41 199.86H116.75C116.57 202.42 116.01 204.7 115.05 206.68ZM118.85 203.06V204.46H123.37V210.42C123.37 211.1 123.13 211.44 122.67 211.44C121.71 211.44 120.81 211.42 119.99 211.42L120.37 212.78H123.25C124.29 212.78 124.83 212.14 124.83 210.86V204.46H128.91V203.06H124.83V200.98C126.03 199.78 127.13 198.48 128.09 197.1V195.7H119.43V197.1H126.45C125.47 198.46 124.45 199.6 123.37 200.54V203.06H118.85ZM151.07 199.78H155.87V204.4H149.99V205.8H155.87V210.88H147.57V212.32H165.19V210.88H157.33V205.8H163.51V204.4H157.33V199.78H163.91V198.38H157.33V194.82H155.87V198.38H151.59C151.89 197.48 152.15 196.52 152.37 195.48L150.91 195.22C150.25 198.56 148.97 201.22 147.09 203.18L148.01 204.36C149.25 203.12 150.27 201.6 151.07 199.78ZM188.91 200.48V201.86H194.63V204.96H190.25V213.02H191.67V211.92H199.17V212.98H200.59V204.96H196.09V201.86H201.85V200.48H196.09V197.16C197.91 196.9 199.51 196.52 200.91 196.02L200.21 194.78C197.33 195.76 193.69 196.26 189.33 196.26L189.77 197.56C191.49 197.56 193.11 197.48 194.63 197.34V200.48H188.91ZM191.67 210.56V206.32H199.17V210.56H191.67ZM185.29 194.94L184.31 195.88C185.75 196.84 186.89 197.72 187.71 198.56L188.69 197.58C187.77 196.7 186.63 195.82 185.29 194.94ZM184.83 199.72L183.83 200.7C185.29 201.74 186.43 202.74 187.27 203.68L188.27 202.68C187.35 201.68 186.19 200.7 184.83 199.72ZM187.19 205.04C186.35 207.46 185.33 209.82 184.17 212.14L185.61 212.76C186.65 210.52 187.61 208.1 188.49 205.54L187.19 205.04Z" fill="white"/>
<rect x="21" width="160" height="160" rx="50" fill="white"/>
<rect x="41" y="21.9508" width="120" height="117.049" rx="20" fill="#5E72E4"/>
<path d="M72.328 64.84V93.992H63.912V89.16H67.112V64.84H72.328ZM63.304 67.912L60.296 93.992H55.176L58.152 67.912H63.304ZM80.52 67.912L83.496 93.992H78.6L75.624 67.912H80.52ZM113.288 83.048V89.896H114.696V94.152H86.952V89.896H88.232V83.048H113.288ZM95.88 64.84V66.088H105.736V64.84H110.952V66.088H114.856V70.376H110.952V71.656H105.736V70.376H95.88V71.656H90.696V70.376H86.792V66.088H90.696V64.84H95.88ZM114.312 73.416V78.024H112.968L114.056 82.504H109.032L107.944 78.024H106.792L105.928 82.504H100.52L102.472 72.168H107.912L107.656 73.416H114.312ZM99.24 72.168V82.504H94.056V72.168H99.24ZM92.648 72.584V82.12H87.464V72.584H92.648ZM99.784 89.896H101.768V87.304H99.784V89.896ZM93.448 89.896H95.176V87.304H93.448V89.896ZM106.408 89.896H108.072V87.304H106.408V89.896ZM143.816 65.64L145.192 69.512H147.72V74.344H142.12L140.84 70.792V79.08H145.48V92.488H135.016V87.624H140.296V83.944H131.304V94.184H126.12V83.944H118.344V79.08H126.12V73.384H119.752V68.552H126.12V64.84H131.304V68.552H140.04L138.984 65.64H143.816ZM131.304 79.08H135.624V73.384H131.304V79.08Z" fill="white"/>
</svg>
