<svg width="29" height="35" viewBox="0 0 29 35" fill="none" xmlns="http://www.w3.org/2000/svg">
<path d="M18.7373 16.7295L12.0926 8.5805C11.9835 8.44532 11.8537 8.33802 11.7106 8.26479C11.5675 8.19157 11.4141 8.15387 11.2591 8.15387C11.1041 8.15387 10.9507 8.19157 10.8076 8.26479C10.6646 8.33802 10.5347 8.44532 10.4256 8.5805C10.207 8.85074 10.0842 9.21629 10.0842 9.59733C10.0842 9.97837 10.207 10.3439 10.4256 10.6142L16.2367 17.8257L10.4256 24.9651C10.207 25.2354 10.0842 25.6009 10.0842 25.9819C10.0842 26.363 10.207 26.7285 10.4256 26.9988C10.5343 27.135 10.664 27.2435 10.8071 27.3177C10.9501 27.392 11.1038 27.4307 11.2591 27.4315C11.4144 27.4307 11.5681 27.392 11.7112 27.3177C11.8543 27.2435 11.9839 27.135 12.0926 26.9988L18.7373 18.8497C18.8565 18.7147 18.9516 18.5508 19.0166 18.3683C19.0816 18.1858 19.1152 17.9888 19.1152 17.7896C19.1152 17.5905 19.0816 17.3934 19.0166 17.211C18.9516 17.0285 18.8565 16.8646 18.7373 16.7295Z" fill="#ADB5BD"/>
</svg>
