<svg width="51" height="50" viewBox="0 0 51 50" fill="none" xmlns="http://www.w3.org/2000/svg">
<rect x="0.5" width="50" height="50" rx="25" fill="url(#paint0_linear_318_1501)"/>
<path d="M36.4375 22.9375H27.0625V13.5625C27.0625 13.1481 26.8979 12.7507 26.6049 12.4576C26.3118 12.1646 25.9144 12 25.5 12C25.0856 12 24.6882 12.1646 24.3951 12.4576C24.1021 12.7507 23.9375 13.1481 23.9375 13.5625V22.9375H14.5625C14.1481 22.9375 13.7507 23.1021 13.4576 23.3951C13.1646 23.6882 13 24.0856 13 24.5C13 24.9144 13.1646 25.3118 13.4576 25.6049C13.7507 25.8979 14.1481 26.0625 14.5625 26.0625H23.9375V35.4375C23.9375 35.8519 24.1021 36.2493 24.3951 36.5424C24.6882 36.8354 25.0856 37 25.5 37C25.9144 37 26.3118 36.8354 26.6049 36.5424C26.8979 36.2493 27.0625 35.8519 27.0625 35.4375V26.0625H36.4375C36.8519 26.0625 37.2493 25.8979 37.5424 25.6049C37.8354 25.3118 38 24.9144 38 24.5C38 24.0856 37.8354 23.6882 37.5424 23.3951C37.2493 23.1021 36.8519 22.9375 36.4375 22.9375Z" fill="#E5E5E5"/>
<defs>
<linearGradient id="paint0_linear_318_1501" x1="0.499999" y1="4.6875" x2="46.5937" y2="53.125" gradientUnits="userSpaceOnUse">
<stop stop-color="#5A6FE9"/>
<stop offset="0.28125" stop-color="#4B8BEF"/>
<stop offset="1" stop-color="#1EBCEE"/>
</linearGradient>
</defs>
</svg>
